<?xml version="1.0" encoding="UTF-8"?>
<svg id="Layer_2" data-name="Layer 2" xmlns="http://www.w3.org/2000/svg" viewBox="0 0 39.34 23.42">
  <defs>
    <style>
      .cls-1 {
        fill: #f9592b;
      }
    </style>
  </defs>
  <g id="Layer_1-2" data-name="Layer 1">
    <g>
      <path class="cls-1" d="M6.19,23.42c-1.32,0-2.46-.33-3.41-.98-.95-.65-1.66-1.54-2.14-2.66S-.05,17.41.01,16c.06-1.37.34-2.62.82-3.76s1.13-2.14,1.95-2.99c.82-.85,1.76-1.52,2.83-2,1.07-.48,2.22-.72,3.46-.72s2.28.23,3.07.69c.79.46,1.38,1.05,1.76,1.78L15.47,0h4.32l-4.03,23.04h-3.84l-.1-2.21c-.38.45-.84.88-1.38,1.28s-1.15.73-1.86.96c-.7.23-1.5.35-2.4.35ZM7.98,19.65c.92,0,1.75-.24,2.5-.72.75-.48,1.35-1.12,1.81-1.94.46-.81.71-1.72.75-2.72.04-.81-.08-1.51-.35-2.1-.28-.59-.69-1.04-1.23-1.38-.54-.33-1.2-.5-1.97-.5-.92,0-1.74.23-2.48.69-.74.46-1.33,1.08-1.78,1.87-.45.79-.69,1.69-.74,2.69-.04.79.07,1.49.34,2.11.27.62.67,1.1,1.2,1.46.53.35,1.18.53,1.95.53Z"/>
      <path class="cls-1" d="M19.9,23.04l2.14-12.1h3.24l-2.14,12.1h-3.24ZM24.27,9.36c-.59,0-1.07-.18-1.44-.54-.37-.36-.55-.8-.55-1.31,0-.54.18-.99.55-1.34.37-.35.85-.53,1.44-.53s1.08.18,1.45.53c.38.35.56.8.56,1.34,0,.51-.19.95-.58,1.31-.38.36-.86.54-1.44.54Z"/>
      <path class="cls-1" d="M26.43,23.04l3.05-17.28h3.24l-3.05,17.28h-3.24Z"/>
      <path class="cls-1" d="M32.95,23.04l2.14-12.1h3.24l-2.14,12.1h-3.24ZM37.32,9.36c-.59,0-1.07-.18-1.44-.54-.37-.36-.55-.8-.55-1.31,0-.54.18-.99.55-1.34.37-.35.85-.53,1.44-.53s1.08.18,1.45.53c.38.35.56.8.56,1.34,0,.51-.19.95-.58,1.31-.38.36-.86.54-1.44.54Z"/>
    </g>
  </g>
</svg>